<?xml version="1.0" encoding="utf-8"?>
<!-- Generator: Adobe Illustrator 21.0.2, SVG Export Plug-In . SVG Version: 6.00 Build 0)  -->
<svg version="1.1" id="Layer_1" xmlns="http://www.w3.org/2000/svg" xmlns:xlink="http://www.w3.org/1999/xlink" x="0px" y="0px"
	 viewBox="0 0 390.1 68.7" style="enable-background:new 0 0 390.1 68.7;" xml:space="preserve">
<style type="text/css">
	.st0{fill:#FFFFFF;}
</style>
<title>reframe-logo</title>
<g id="Layer_2">
	<g id="Layer_1-2">
		<path class="st0" d="M28.9,23.9c3.8,0,5.5,2.6,5.5,5.2s-1.7,5.2-5.5,5.2h-9.2V23.9H28.9z M42.1,50.1l-9.7-11
			c6.1-1.2,8.1-5.7,8.1-10.1c0-5.6-4-10.6-11.6-10.7c-5.1,0-10.2,0-15.3,0v32.2h6.1V39.7h5.8l9.4,10.8h7.2V50.1z"/>
		<polygon class="st0" points="80.8,50.5 80.8,38.6 97,38.6 97,33 80.8,33 80.8,24.2 97.9,24.2 97.9,18.4 74.8,18.4 74.8,50.5 		"/>
		<path class="st0" d="M118.2,23.9c3.8,0,5.5,2.6,5.5,5.2s-1.7,5.2-5.5,5.2h-9.2V23.9H118.2z M131.4,50.1l-9.7-11
			c6.1-1.2,8.1-5.7,8.1-10.1c0-5.6-4-10.6-11.6-10.7c-5.1,0-10.2,0-15.3,0v32.2h6.1V39.7h5.8l9.4,10.8h7.2V50.1z"/>
		<path class="st0" d="M155,38.8h-11.9l6-13.7L155,38.8z M160.2,50.5h6.6l-14.4-32.2h-6.6l-14.4,32.2h6.6l2.8-6.1h16.8L160.2,50.5z"
			/>
		<polygon class="st0" points="197.9,50.5 203.9,50.5 203.9,18.4 197,18.4 186.9,32.2 176.9,18.4 169.9,18.4 169.9,50.5 175.9,50.5 
			175.9,27.1 186.2,41.1 187.4,41.1 197.9,27.2 		"/>
		<path class="st0" d="M239.3,47.6c0,4.4,6.6,4.4,6.6,0S239.3,43.2,239.3,47.6"/>
		<polygon class="st0" points="291,18.3 284.2,18.3 276.9,41.5 268.8,18.3 264.9,18.3 257,41.5 249.5,18.3 242.7,18.3 254.5,50.5 
			259.6,50.5 263.5,40.4 266.9,30.2 270.3,40.3 274.3,50.5 279.4,50.5 		"/>
		<path class="st0" d="M308.6,23.2c7.6,0,10.6,6.1,10.5,11.5c-0.1,5.3-2.9,11-10.5,11c-7.6,0-10.4-5.7-10.6-10.9
			C297.9,29.3,301,23.2,308.6,23.2 M308.6,17.7c-11.1,0-16.5,8.5-16.5,17c0,8.5,5.2,16.6,16.5,16.6s16.4-8.3,16.5-16.6
			C325.2,26.2,319.7,17.7,308.6,17.7z"/>
		<path class="st0" d="M345.7,23.9c3.8,0,5.5,2.6,5.5,5.2s-1.7,5.2-5.5,5.2h-9.2V23.9H345.7z M358.8,50.1l-9.7-11
			c6.1-1.2,8.1-5.7,8.1-10.1c0-5.6-4-10.6-11.6-10.7c-5.1,0-10.2,0-15.3,0v32.2h6.1V39.7h5.8l9.4,10.8h7.2L358.8,50.1z"/>
		<polygon class="st0" points="387.9,18.3 380.4,18.3 368.2,31.9 368.2,18.3 362.1,18.3 362.1,50.5 368.2,50.5 368.2,36.2 
			381.6,50.5 389.1,50.5 389.1,50.1 373.6,33.9 387.9,18.4 		"/>
		<path class="st0" d="M387.9,65.4c0,0.6,0.5,1.1,1.1,1.1c0.6,0,1.1-0.5,1.1-1.1c0-0.6-0.5-1.1-1.1-1.1
			C388.4,64.4,387.9,64.8,387.9,65.4 M385.8,63.7c-0.7,0.7-1.7,1.1-2.7,1.1c-1.9,0.1-3.5-1.3-3.7-3.2c0-0.2,0-0.3,0-0.5
			c-0.1-1.9,1.4-3.6,3.3-3.7c0.1,0,0.3,0,0.4,0c1,0,1.9,0.3,2.6,1l1.3-1.3c-1-1.1-2.5-1.6-3.9-1.6c-3-0.2-5.5,2.1-5.7,5.1
			c0,0.2,0,0.4,0,0.6c-0.2,2.9,2.1,5.4,5,5.5c0.2,0,0.5,0,0.7,0c1.5,0,3-0.5,4.1-1.6L385.8,63.7z M373.6,62.3l-5.3-6.7h-1.6v10.7h2
			v-7.2l5.6,7.2h1.3V55.7h-2L373.6,62.3z M364.4,66.4V55.7h-2v10.7L364.4,66.4z"/>
		<rect x="210.3" y="31.4" class="st0" width="24.1" height="5.9"/>
		<rect x="210.3" y="18.3" class="st0" width="24.1" height="5.9"/>
		<rect x="210.3" y="44.6" class="st0" width="24.1" height="5.9"/>
		<path class="st0" d="M0,0v68.7h69.3V44.5H51.2v-7.3h17.4v-5.7H51.2v-7.4h18.1V0H0z M63.4,18.3H45.2v32.2h18.2v12.4H5.9v-57h57.5
			V18.3z"/>
		<rect x="210.3" y="18.3" class="st0" width="5.9" height="32.3"/>
	</g>
</g>
</svg>
